<svg width="100" height="100" viewBox="0 0 100 100" fill="none" xmlns="http://www.w3.org/2000/svg">
<path fill-rule="evenodd" clip-rule="evenodd" d="M49.9999 89.0944C71.5912 89.0944 89.0944 71.5912 89.0944 49.9999C89.0944 28.4086 71.5912 10.9055 49.9999 10.9055C28.4086 10.9055 10.9055 28.4086 10.9055 49.9999C10.9055 71.5912 28.4086 89.0944 49.9999 89.0944ZM49.9999 99.9999C77.6141 99.9999 99.9999 77.6141 99.9999 49.9999C99.9999 22.3857 77.6141 0 49.9999 0C22.3857 0 0 22.3857 0 49.9999C0 77.6141 22.3857 99.9999 49.9999 99.9999Z" fill="white"/>
<circle cx="50" cy="49.9999" r="39" fill="#393939"/>
<path d="M69.9549 63.7125C69.1569 64.5038 68.5787 67.7384 68.1797 66.4698C67.8108 65.2969 64.3553 62.0491 65.3837 59.1695C65.7213 58.2243 64.9294 55.85 64.9294 55.85L73.2678 59.4837C73.2678 59.4837 80.172 67.5487 77.8273 66.0807C75.8629 64.8509 77.6405 64.0094 75.0275 62.9517C72.4145 61.894 71.0147 62.6616 69.9549 63.7125Z" fill="#2B2B2B"/>
<path d="M47.9592 58.2939C40.7298 58.4076 35.7817 59.0432 30.2521 63.7017C28.7327 64.9818 26.7379 67.3804 26.7379 67.3804C26.7379 67.3804 27.1642 61.7044 29.0272 58.3421L30.6872 58.1868C31.964 55.882 32.7177 54.5215 34.4369 52.4654C36.4594 50.0465 40.4084 47.0315 40.4084 47.0315C40.4084 47.0315 37.9369 45.8421 34.4369 45.3421C30.9369 44.8421 29.5272 44.8421 24.5272 46.8421C19.5272 48.8421 17.5272 55.857 17.5272 55.857C17.5272 55.857 17.0271 47.3792 19.0272 44.3421L20.0271 44.3421C22.6123 39.9629 28.5272 37.8421 30.5272 37.3421C32.5272 36.8421 39.8883 37.071 39.8883 37.071C39.8883 37.071 38.0272 35.8421 32.0272 32.8421C26.0272 29.8421 20.5272 31.8421 20.5272 31.8421C20.5272 31.8421 23.1571 28.8411 28.5272 26.3421C28.9262 26.1177 30.1183 27.5314 30.5272 27.3421C39.5273 26.8421 45.9483 27.2049 51.5271 28.8421C57.3988 30.5653 65.806 34.663 73.617 42.5562C74.9491 43.9023 77.1333 46.0654 77.802 48.5957C78.4707 51.1259 75.8392 52.0844 76.9562 53.6748C78.0732 55.2652 79.6103 56.1091 80.762 57.8442C82.2652 60.1089 83.3585 61.9122 82.663 64.5398C82.1985 66.2947 81.4456 67.2435 80.0137 68.3594C77.8771 70.0244 73.2237 70.236 73.2237 70.236C73.2237 70.236 76.4492 67.8718 76.4781 65.9616C76.5091 63.9146 73.574 61.0385 71.1549 59.846C67.8698 58.2266 64.9625 58.1867 64.9625 58.1867C64.9625 58.1867 67.1226 59.1665 68.0801 60.82C69.1738 62.7086 69.5371 64.5432 69.0935 66.4704C68.6629 68.3414 66.1535 70.4106 66.1535 70.4106C66.1535 70.4106 66.5912 67.8701 66.1456 66.2002C65.391 63.3726 62.9972 61.5822 60.9652 60.6025C58.9332 59.6229 53.1429 58.2124 47.9592 58.2939Z" fill="url(#paint0_linear)"/>
<path d="M68.5748 50.1892C69.2094 50.4881 70.3098 50.6541 70.3098 50.6541C70.3098 50.6541 68.4371 52.1757 67.019 52.1896C65.9616 52.2 65.5916 52.1065 64.7862 51.7265C64.1288 51.4163 63.6405 50.98 63.2856 50.625C62.6702 50.0095 62.5348 49.7913 62.0257 49.0854C61.5875 48.478 60.5838 46.8146 60.5838 46.8146C60.5838 46.8146 61.0938 47.0551 61.4984 47.32C61.762 47.4927 62.4533 48.1771 62.4533 48.1771C62.4533 48.1771 62.0495 47.3594 61.8743 46.8048C61.6164 45.9885 61.5041 45.4999 61.5066 44.6438C61.5094 43.6852 60.9285 42.0166 60.9285 42.0166C60.9285 42.0166 62.3844 44.0371 62.9878 44.8933C63.9974 46.3258 65.2732 46.9605 66.4738 48.2373C67.33 49.1479 67.444 49.6566 68.5748 50.1892Z" fill="#2B2B2B"/>
<path d="M68.036 49.7956C67.7211 50.9709 66.513 51.6684 65.3377 51.3535C64.1624 51.0386 63.465 49.8305 63.7799 48.6552C64.0948 47.4799 65.3029 46.7824 66.4782 47.0973C67.6535 47.4123 68.3509 48.6203 68.036 49.7956Z" fill="url(#paint1_linear)"/>
<path d="M68.0645 49.3545C67.8432 50.1801 66.9946 50.67 66.169 50.4488C65.3434 50.2276 64.8534 49.379 65.0747 48.5533C65.2959 47.7277 66.1445 47.2378 66.9701 47.459C67.7957 47.6802 68.2857 48.5288 68.0645 49.3545Z" fill="url(#paint2_linear)"/>
<path d="M67.2861 49.2542C67.2071 49.5488 66.9043 49.7236 66.6097 49.6447C66.3151 49.5658 66.1403 49.263 66.2193 48.9684C66.2982 48.6738 66.601 48.499 66.8956 48.5779C67.1902 48.6568 67.365 48.9596 67.2861 49.2542Z" fill="white"/>
<defs>
<linearGradient id="paint0_linear" x1="26.8504" y1="49.4572" x2="88.732" y2="65.9431" gradientUnits="userSpaceOnUse">
<stop stop-color="white"/>
<stop offset="0.947839" stop-color="#D9D9D9"/>
</linearGradient>
<linearGradient id="paint1_linear" x1="64.1104" y1="50.4173" x2="66.683" y2="48.0726" gradientUnits="userSpaceOnUse">
<stop stop-color="#FFA767"/>
<stop offset="1" stop-color="#FFA767" stop-opacity="0"/>
</linearGradient>
<linearGradient id="paint2_linear" x1="66.8225" y1="48.3747" x2="65.3767" y2="49.8887" gradientUnits="userSpaceOnUse">
<stop offset="0.015516" stop-opacity="0"/>
<stop offset="1"/>
</linearGradient>
</defs>
</svg>
