<svg width="367" height="361" viewBox="0 0 367 361" fill="none" xmlns="http://www.w3.org/2000/svg">
<path fill-rule="evenodd" clip-rule="evenodd" d="M114.119 6C63.8379 35.2903 30 90.1047 30 152.893C30 246.505 105.216 322.393 198 322.393C289.53 322.393 363.964 248.542 365.959 156.677C366.647 163.155 367 169.733 367 176.393C367 278.013 284.844 360.393 183.5 360.393C82.1558 360.393 0 278.013 0 176.393C0 99.3912 47.1713 33.437 114.119 6Z" fill="#0697CC"/>
<path fill-rule="evenodd" clip-rule="evenodd" d="M81.8528 160.208C81.8528 118.657 104.245 82.3831 137.519 63C93.2159 81.1568 62 124.803 62 175.759C62 214.83 80.3522 249.603 108.884 271.884C108.518 268.128 107.493 255.729 109 247.5C109.629 244.064 111.053 239.428 111.878 236.877C93.2554 216.821 81.8528 189.858 81.8528 160.208ZM124.798 248.774L125 249L109.451 272.323C129.935 288.126 155.59 297.523 183.433 297.523C250.498 297.523 304.865 243.007 304.865 175.759C304.865 171.351 304.632 166.998 304.177 162.712C302.857 223.504 253.599 272.376 193.028 272.376C167.311 272.376 143.633 263.566 124.798 248.774Z" fill="#0697CC"/>
<path fill-rule="evenodd" clip-rule="evenodd" d="M255.029 297.615C312.358 275.288 353 219.406 353 154C353 68.9482 284.276 0 199.5 0C114.724 0 46 68.9482 46 154C46 160.008 46.343 165.936 47.0103 171.765C47.933 94.4164 110.479 32 187.5 32C265.096 32 328 95.3517 328 173.5C328 226.998 298.52 273.563 255.029 297.615Z" fill="#006668"/>
<path d="M121 234.134C113.578 246.914 109.5 271.634 109.5 271.634L182 296.134C182 296.134 192.331 283.039 185.5 274.5C184.292 272.991 180.706 269.469 179.5 265C177.885 259.015 179.561 251.327 180 249.134C180.439 246.941 181.008 243.832 184 239.634C185.5 237.529 189.38 232.589 195 231.134C198.024 230.351 199.979 230.337 203 231.134C206.303 232.005 210.5 235.634 210.5 235.634C210.5 235.634 213.779 231.96 215 229.634C216.633 226.522 216.115 221.334 214 217.134C211.558 212.285 207.5 210.134 202.5 208.634C196.442 206.817 189.151 207.134 188.5 206.634C187.849 206.134 186.118 200.81 182 199.634C171.5 196.634 151.482 205.004 145 209.634C141.5 212.134 131.246 216.491 121 234.134Z" fill="#0697CE"/>
<path d="M98.377 149L105.639 112.691H122.65C129.557 112.691 132.443 115.51 131.309 121.146C130.496 125.277 127.661 128.23 122.803 130.008C127.424 130.905 129.277 133.656 128.363 138.26C126.924 145.42 122.422 149 114.855 149H98.377ZM115.744 143.16C118.723 143.16 120.518 141.637 121.127 138.59C121.889 134.815 120.044 132.928 115.592 132.928H113.561L114.424 128.586C120.196 127.655 123.454 125.319 124.199 121.578C124.605 119.547 123.556 118.531 121.051 118.531H111.199L106.273 143.16H115.744ZM164.062 112.691L162.895 118.48H144.715L142.887 127.621H160.203L159.01 133.639H141.617L139.713 143.16H158.324L157.156 149H131.943L139.205 112.691H164.062ZM163.377 148.949L170.639 112.691H187.143C194.557 112.691 197.612 115.933 196.309 122.416C195.276 127.545 191.662 131.176 185.467 133.309L193.846 149H186L178.104 133.182L178.713 130.109C184.942 129.009 188.446 126.512 189.225 122.619C189.766 119.945 188.531 118.607 185.518 118.607H176.301L170.232 148.949H163.377ZM210.781 112.691L203.52 149H196.791L204.053 112.691H210.781ZM235.309 112.691L215.174 130.312L229.926 149H221.115L208.953 132.039L209.816 127.672L226.828 112.691H235.309ZM236.451 134.73L240.869 112.691H247.598L243.18 134.73C242.029 140.52 244.415 143.414 250.34 143.414C256.264 143.414 259.802 140.52 260.953 134.73L265.371 112.691H272.1L267.682 134.73C265.752 144.413 259.582 149.254 249.172 149.254C238.762 149.254 234.521 144.413 236.451 134.73ZM303.457 112.691L302.289 118.531H291.879L285.785 149H279.057L285.15 118.531H274.74L275.908 112.691H303.457Z" fill="#0697CE"/>
<path d="M98.377 149L97.3964 148.804L97.1571 150H98.377V149ZM105.639 112.691V111.691H104.819L104.658 112.495L105.639 112.691ZM131.309 121.146L130.328 120.949L130.327 120.953L131.309 121.146ZM122.803 130.008L122.459 129.069L119.082 130.304L122.612 130.989L122.803 130.008ZM128.363 138.26L129.344 138.457L129.344 138.454L128.363 138.26ZM121.127 138.59L120.147 138.392L120.146 138.394L121.127 138.59ZM113.561 132.928L112.58 132.733L112.342 133.928H113.561V132.928ZM114.424 128.586L114.265 127.599L113.579 127.709L113.443 128.391L114.424 128.586ZM124.199 121.578L123.219 121.382L123.218 121.383L124.199 121.578ZM111.199 118.531V117.531H110.379L110.219 118.335L111.199 118.531ZM106.273 143.16L105.293 142.964L105.054 144.16H106.273V143.16ZM99.3575 149.196L106.619 112.888L104.658 112.495L97.3964 148.804L99.3575 149.196ZM105.639 113.691H122.65V111.691H105.639V113.691ZM122.65 113.691C126.016 113.691 128.135 114.387 129.296 115.521C130.402 116.601 130.859 118.31 130.328 120.949L132.289 121.344C132.892 118.347 132.473 115.828 130.693 114.09C128.968 112.405 126.192 111.691 122.65 111.691V113.691ZM130.327 120.953C129.599 124.658 127.076 127.38 122.459 129.069L123.146 130.947C128.246 129.081 131.394 125.895 132.29 121.34L130.327 120.953ZM122.612 130.989C124.772 131.409 126.104 132.226 126.829 133.302C127.555 134.379 127.809 135.914 127.382 138.065L129.344 138.454C129.831 136.001 129.616 133.859 128.488 132.185C127.36 130.511 125.454 129.504 122.993 129.026L122.612 130.989ZM127.383 138.063C126.697 141.475 125.306 143.925 123.285 145.532C121.259 147.143 118.484 148 114.855 148V150C118.793 150 122.052 149.067 124.53 147.098C127.011 145.125 128.591 142.204 129.344 138.457L127.383 138.063ZM114.855 148H98.377V150H114.855V148ZM115.744 144.16C117.406 144.16 118.85 143.732 119.971 142.78C121.088 141.832 121.773 140.459 122.108 138.786L120.146 138.394C119.872 139.767 119.354 140.68 118.677 141.255C118.004 141.826 117.061 142.16 115.744 142.16V144.16ZM122.107 138.788C122.521 136.735 122.277 134.921 121.03 133.644C119.824 132.412 117.912 131.928 115.592 131.928V133.928C117.723 133.928 118.959 134.388 119.599 135.042C120.197 135.653 120.494 136.67 120.147 138.392L122.107 138.788ZM115.592 131.928H113.561V133.928H115.592V131.928ZM114.541 133.123L115.405 128.781L113.443 128.391L112.58 132.733L114.541 133.123ZM114.583 129.573C120.512 128.617 124.313 126.13 125.18 121.773L123.218 121.383C122.596 124.508 119.88 126.693 114.265 127.599L114.583 129.573ZM125.18 121.774C125.419 120.577 125.275 119.409 124.412 118.574C123.606 117.794 122.39 117.531 121.051 117.531V119.531C122.216 119.531 122.778 119.776 123.021 120.012C123.208 120.192 123.385 120.548 123.219 121.382L125.18 121.774ZM121.051 117.531H111.199V119.531H121.051V117.531ZM110.219 118.335L105.293 142.964L107.254 143.356L112.18 118.727L110.219 118.335ZM106.273 144.16H115.744V142.16H106.273V144.16ZM164.062 112.691L165.043 112.889L165.284 111.691H164.062V112.691ZM162.895 118.48V119.48H163.713L163.875 118.678L162.895 118.48ZM144.715 118.48V117.48H143.895L143.734 118.284L144.715 118.48ZM142.887 127.621L141.906 127.425L141.667 128.621H142.887V127.621ZM160.203 127.621L161.184 127.816L161.421 126.621H160.203V127.621ZM159.01 133.639V134.639H159.831L159.991 133.833L159.01 133.639ZM141.617 133.639V132.639H140.797L140.637 133.443L141.617 133.639ZM139.713 143.16L138.732 142.964L138.493 144.16H139.713V143.16ZM158.324 143.16L159.305 143.356L159.544 142.16H158.324V143.16ZM157.156 149V150H157.976L158.137 149.196L157.156 149ZM131.943 149L130.963 148.804L130.724 150H131.943V149ZM139.205 112.691V111.691H138.385L138.224 112.495L139.205 112.691ZM163.082 112.494L161.914 118.283L163.875 118.678L165.043 112.889L163.082 112.494ZM162.895 117.48H144.715V119.48H162.895V117.48ZM143.734 118.284L141.906 127.425L143.867 127.817L145.695 118.677L143.734 118.284ZM142.887 128.621H160.203V126.621H142.887V128.621ZM159.222 127.427L158.029 133.444L159.991 133.833L161.184 127.816L159.222 127.427ZM159.01 132.639H141.617V134.639H159.01V132.639ZM140.637 133.443L138.732 142.964L140.693 143.356L142.598 133.835L140.637 133.443ZM139.713 144.16H158.324V142.16H139.713V144.16ZM157.344 142.964L156.176 148.804L158.137 149.196L159.305 143.356L157.344 142.964ZM157.156 148H131.943V150H157.156V148ZM132.924 149.196L140.186 112.888L138.224 112.495L130.963 148.804L132.924 149.196ZM139.205 113.691H164.062V111.691H139.205V113.691ZM163.377 148.949L162.396 148.753L162.157 149.949H163.377V148.949ZM170.639 112.691V111.691H169.819L169.658 112.495L170.639 112.691ZM196.309 122.416L197.289 122.613L197.289 122.613L196.309 122.416ZM185.467 133.309L185.141 132.363L184.032 132.745L184.585 133.78L185.467 133.309ZM193.846 149V150H195.513L194.728 148.529L193.846 149ZM186 149L185.105 149.447L185.382 150H186V149ZM178.104 133.182L177.123 132.987L177.056 133.322L177.209 133.628L178.104 133.182ZM178.713 130.109L178.539 129.125L177.865 129.244L177.732 129.915L178.713 130.109ZM189.225 122.619L188.245 122.421L188.244 122.423L189.225 122.619ZM176.301 118.607V117.607H175.481L175.32 118.411L176.301 118.607ZM170.232 148.949V149.949H171.052L171.213 149.145L170.232 148.949ZM164.357 149.146L171.619 112.888L169.658 112.495L162.396 148.753L164.357 149.146ZM170.639 113.691H187.143V111.691H170.639V113.691ZM187.143 113.691C190.749 113.691 193.022 114.487 194.267 115.808C195.479 117.094 195.949 119.133 195.328 122.219L197.289 122.613C197.972 119.216 197.566 116.392 195.722 114.437C193.912 112.516 190.95 111.691 187.143 111.691V113.691ZM195.328 122.219C194.384 126.909 191.099 130.312 185.141 132.363L185.792 134.254C192.225 132.04 196.168 128.181 197.289 122.613L195.328 122.219ZM184.585 133.78L192.964 149.471L194.728 148.529L186.349 132.838L184.585 133.78ZM193.846 148H186V150H193.846V148ZM186.895 148.553L178.998 132.735L177.209 133.628L185.105 149.447L186.895 148.553ZM179.084 133.376L179.694 130.304L177.732 129.915L177.123 132.987L179.084 133.376ZM178.887 131.094C185.248 129.971 189.302 127.329 190.205 122.815L188.244 122.423C187.59 125.696 184.636 128.048 178.539 129.125L178.887 131.094ZM190.205 122.818C190.506 121.329 190.367 119.937 189.439 118.932C188.538 117.958 187.128 117.607 185.518 117.607V119.607C186.921 119.607 187.634 119.926 187.97 120.289C188.276 120.621 188.485 121.234 188.245 122.421L190.205 122.818ZM185.518 117.607H176.301V119.607H185.518V117.607ZM175.32 118.411L169.252 148.753L171.213 149.145L177.281 118.804L175.32 118.411ZM170.232 147.949H163.377V149.949H170.232V147.949ZM210.781 112.691L211.762 112.888L212.001 111.691H210.781V112.691ZM203.52 149V150H204.339L204.5 149.196L203.52 149ZM196.791 149L195.81 148.804L195.571 150H196.791V149ZM204.053 112.691V111.691H203.233L203.072 112.495L204.053 112.691ZM235.309 112.691L235.967 113.444L237.97 111.691H235.309V112.691ZM215.174 130.312L214.515 129.56L213.8 130.186L214.389 130.932L215.174 130.312ZM229.926 149V150H231.989L230.711 148.38L229.926 149ZM221.115 149L220.303 149.583L220.602 150H221.115V149ZM208.953 132.039L207.972 131.845L207.888 132.27L208.14 132.622L208.953 132.039ZM209.816 127.672L209.156 126.921L208.901 127.145L208.835 127.478L209.816 127.672ZM226.828 112.691V111.691H226.451L226.167 111.941L226.828 112.691ZM209.801 112.495L202.539 148.804L204.5 149.196L211.762 112.888L209.801 112.495ZM203.52 148H196.791V150H203.52V148ZM197.772 149.196L205.033 112.888L203.072 112.495L195.81 148.804L197.772 149.196ZM204.053 113.691H210.781V111.691H204.053V113.691ZM234.65 111.939L214.515 129.56L215.832 131.065L235.967 113.444L234.65 111.939ZM214.389 130.932L229.141 149.62L230.711 148.38L215.959 129.693L214.389 130.932ZM229.926 148H221.115V150H229.926V148ZM221.928 148.417L209.766 131.456L208.14 132.622L220.303 149.583L221.928 148.417ZM209.934 132.233L210.797 127.866L208.835 127.478L207.972 131.845L209.934 132.233ZM210.477 128.422L227.489 113.442L226.167 111.941L209.156 126.921L210.477 128.422ZM226.828 113.691H235.309V111.691H226.828V113.691ZM236.451 134.73L235.471 134.534L235.47 134.535L236.451 134.73ZM240.869 112.691V111.691H240.05L239.889 112.495L240.869 112.691ZM247.598 112.691L248.578 112.888L248.818 111.691H247.598V112.691ZM243.18 134.73L242.199 134.534L242.199 134.535L243.18 134.73ZM260.953 134.73L259.973 134.534L259.972 134.535L260.953 134.73ZM265.371 112.691V111.691H264.552L264.391 112.495L265.371 112.691ZM272.1 112.691L273.08 112.888L273.32 111.691H272.1V112.691ZM267.682 134.73L266.701 134.534L266.701 134.535L267.682 134.73ZM237.432 134.927L241.85 112.888L239.889 112.495L235.471 134.534L237.432 134.927ZM240.869 113.691H247.598V111.691H240.869V113.691ZM246.617 112.495L242.199 134.534L244.16 134.927L248.578 112.888L246.617 112.495ZM242.199 134.535C241.598 137.555 241.863 140.094 243.335 141.879C244.806 143.663 247.252 144.414 250.34 144.414V142.414C247.504 142.414 245.794 141.718 244.878 140.607C243.963 139.498 243.61 137.695 244.16 134.925L242.199 134.535ZM250.34 144.414C253.464 144.414 256.075 143.649 258.07 142.017C260.065 140.385 261.327 137.98 261.934 134.925L259.972 134.535C259.429 137.27 258.346 139.207 256.803 140.469C255.26 141.732 253.141 142.414 250.34 142.414V144.414ZM261.934 134.927L266.352 112.888L264.391 112.495L259.973 134.534L261.934 134.927ZM265.371 113.691H272.1V111.691H265.371V113.691ZM271.119 112.495L266.701 134.534L268.662 134.927L273.08 112.888L271.119 112.495ZM266.701 134.535C265.77 139.204 263.842 142.598 260.99 144.836C258.131 147.079 254.226 148.254 249.172 148.254V150.254C254.527 150.254 258.913 149.008 262.224 146.41C265.542 143.807 267.663 139.939 268.662 134.926L266.701 134.535ZM249.172 148.254C244.081 148.254 240.776 147.065 238.936 144.964C237.112 142.881 236.495 139.629 237.432 134.926L235.47 134.535C234.478 139.514 235.016 143.524 237.432 146.282C239.832 149.023 243.853 150.254 249.172 150.254V148.254ZM303.457 112.691L304.438 112.888L304.677 111.691H303.457V112.691ZM302.289 118.531V119.531H303.109L303.27 118.727L302.289 118.531ZM291.879 118.531V117.531H291.059L290.898 118.335L291.879 118.531ZM285.785 149V150H286.605L286.766 149.196L285.785 149ZM279.057 149L278.076 148.804L277.837 150H279.057V149ZM285.15 118.531L286.131 118.727L286.37 117.531H285.15V118.531ZM274.74 118.531L273.76 118.335L273.52 119.531H274.74V118.531ZM275.908 112.691V111.691H275.088L274.928 112.495L275.908 112.691ZM302.476 112.495L301.308 118.335L303.27 118.727L304.438 112.888L302.476 112.495ZM302.289 117.531H291.879V119.531H302.289V117.531ZM290.898 118.335L284.805 148.804L286.766 149.196L292.859 118.727L290.898 118.335ZM285.785 148H279.057V150H285.785V148ZM280.037 149.196L286.131 118.727L284.17 118.335L278.076 148.804L280.037 149.196ZM285.15 117.531H274.74V119.531H285.15V117.531ZM275.721 118.727L276.889 112.888L274.928 112.495L273.76 118.335L275.721 118.727ZM275.908 113.691H303.457V111.691H275.908V113.691Z" fill="#0697CE"/>
<path d="M120.959 174.629L119.026 176.68V182H116.061V164.938H119.026V172.941L120.666 170.914L125.659 164.938H129.245L122.905 172.496L129.608 182H126.092L120.959 174.629ZM161.297 182H158.332L150.726 169.895V182H147.762V164.938H150.726L158.355 177.09V164.938H161.297V182ZM184.49 182H181.536V164.938H184.49V182ZM210.706 178.285L215.042 164.938H218.3L212.159 182H209.288L203.171 164.938H206.417L210.706 178.285ZM246.766 174.383H239.758V179.633H247.949V182H236.793V164.938H247.867V167.328H239.758V172.039H246.766V174.383ZM275.841 177.605C275.841 176.855 275.576 176.277 275.045 175.871C274.521 175.465 273.572 175.055 272.197 174.641C270.822 174.227 269.728 173.766 268.916 173.258C267.361 172.281 266.584 171.008 266.584 169.438C266.584 168.062 267.142 166.93 268.259 166.039C269.384 165.148 270.841 164.703 272.63 164.703C273.818 164.703 274.877 164.922 275.806 165.359C276.736 165.797 277.466 166.422 277.998 167.234C278.529 168.039 278.795 168.934 278.795 169.918H275.841C275.841 169.027 275.56 168.332 274.998 167.832C274.443 167.324 273.646 167.07 272.607 167.07C271.638 167.07 270.884 167.277 270.345 167.691C269.814 168.105 269.548 168.684 269.548 169.426C269.548 170.051 269.837 170.574 270.416 170.996C270.994 171.41 271.947 171.816 273.275 172.215C274.603 172.605 275.67 173.055 276.474 173.562C277.279 174.062 277.869 174.641 278.244 175.297C278.619 175.945 278.806 176.707 278.806 177.582C278.806 179.004 278.259 180.137 277.166 180.98C276.08 181.816 274.603 182.234 272.736 182.234C271.502 182.234 270.365 182.008 269.326 181.555C268.295 181.094 267.49 180.461 266.912 179.656C266.341 178.852 266.056 177.914 266.056 176.844H269.021C269.021 177.812 269.341 178.562 269.982 179.094C270.623 179.625 271.541 179.891 272.736 179.891C273.767 179.891 274.541 179.684 275.056 179.27C275.58 178.848 275.841 178.293 275.841 177.605Z" fill="#006668"/>
</svg>
